<svg xmlns="http://www.w3.org/2000/svg" enable-background="new 0 0 50 50" viewBox="0 0 50 50" id="web-login">
  <g>
    <path fill="#B4BED7" d="M41.23122,1.08245c-0.20551-0.11965-0.4894-0.10412-0.72242-0.07702L8.1001,19.71648
					c-0.69858,0.51135-1.20487,1.38856-1.20293,2.40027l0.08353,25.53158c0.00107,0.0613,0.1284,0.31459,0.33274,0.43347
					l1.458,0.8469c-0.20434-0.1181-0.33167-0.37217-0.33274-0.43347l-0.08353-25.5308
					c-0.00204-1.01249,0.50426-1.8897,1.20283-2.40027L41.9667,1.85311c0.23302-0.0271,0.51701-0.04264,0.72242,0.07624
					L41.23122,1.08245z"></path>
    <path fill="#4C5671" d="M41.23124,1.08238c-0.20551-0.11963-0.48944-0.104-0.72243-0.07699L8.10011,19.71633
					c-0.69859,0.51156-1.20487,1.38851-1.20292,2.10043l0.01288,2.96053l1.4552,0.834l-0.01013-2.94688
					c-0.00201-0.7124,0.50427-1.58984,1.20286-2.10043L41.96669,1.85305c0.23305-0.02701,0.51705-0.04264,0.72243,0.0765
					L41.23124,1.08238z"></path>
    <path fill="#E3E7F0" d="M41.96675,1.85278c0.5409-0.20464,1.05053,0.08604,1.05255,1.09794l0.08353,25.53156
						c0.00205,0.42393-0.50427,1.30118-1.124,1.65898L9.57012,48.85248c-0.61974,0.35781-1.12937,0.06713-1.13143-0.35681
						L8.35515,22.96411c-0.00202-1.0119,0.50431-1.88915,1.20288-2.40011L41.96675,1.85278z"></path>
    <polygon fill="#96D696" points="41.511 8.241 10.025 26.42 10.026 46.752 41.512 28.574"></polygon>
  </g>
  <path fill="#FFF" d="M15.68273,26.52748c-0.29779,0.17193-0.53715,0.58665-0.5362,0.9232l0.01077,3.7973
					c0.00097,0.34194,0.24188,0.47397,0.53967,0.30205l19.97557-11.5329c0.29778-0.17193,0.53717-0.58125,0.5362-0.9232
					l-0.01077-3.7973c-0.00095-0.33655-0.24189-0.47397-0.53967-0.30205L15.68273,26.52748z"></path>
  <polygon fill="#4C5671" points="32.906 18.204 32.941 18.819 32.484 18.735 32.317 19.158 32.822 19.148 32.319 19.726 32.488 19.96 32.948 19.335 32.911 19.998 33.247 19.804 33.202 19.183 33.669 19.273 33.836 18.85 33.336 18.851 33.835 18.282 33.666 18.047 33.206 18.667 33.242 18.01"></polygon>
  <polygon fill="#4C5671" points="30.793 19.424 30.828 20.04 30.371 19.955 30.204 20.378 30.709 20.368 30.205 20.946 30.374 21.18 30.834 20.555 30.798 21.218 31.134 21.024 31.089 20.403 31.556 20.493 31.723 20.07 31.223 20.071 31.721 19.502 31.552 19.268 31.092 19.887 31.129 19.23"></polygon>
  <polygon fill="#4C5671" points="28.679 20.644 28.715 21.26 28.253 21.178 28.09 21.598 28.595 21.588 28.092 22.166 28.256 22.403 28.721 21.776 28.684 22.438 29.016 22.247 28.976 21.623 29.442 21.713 29.61 21.29 29.109 21.292 29.608 20.722 29.439 20.488 28.979 21.107 29.011 20.453"></polygon>
  <polygon fill="#4C5671" points="26.566 21.864 26.601 22.48 26.139 22.398 25.977 22.818 26.482 22.808 25.979 23.386 26.143 23.623 26.608 22.996 26.571 23.658 26.903 23.467 26.862 22.843 27.329 22.933 27.496 22.51 26.996 22.512 27.495 21.942 27.326 21.708 26.866 22.327 26.897 21.673"></polygon>
  <polygon fill="#4C5671" points="24.453 23.085 24.488 23.7 24.026 23.618 23.859 24.041 24.364 24.031 23.861 24.609 24.03 24.843 24.494 24.216 24.458 24.878 24.789 24.687 24.749 24.063 25.216 24.153 25.378 23.733 24.878 23.735 25.377 23.165 25.212 22.928 24.752 23.547 24.784 22.893"></polygon>
  <polygon fill="#4C5671" points="22.339 24.305 22.375 24.92 21.913 24.838 21.75 25.258 22.251 25.251 21.752 25.827 21.916 26.064 22.381 25.436 22.345 26.098 22.676 25.907 22.636 25.284 23.103 25.373 23.265 24.953 22.765 24.955 23.263 24.385 23.099 24.148 22.639 24.768 22.671 24.113"></polygon>
  <polygon fill="#4C5671" points="20.226 25.525 20.262 26.14 19.799 26.058 19.632 26.481 20.137 26.472 19.634 27.05 19.803 27.284 20.268 26.656 20.231 27.318 20.563 27.127 20.522 26.504 20.989 26.593 21.152 26.173 20.651 26.175 21.15 25.605 20.986 25.368 20.526 25.988 20.558 25.333"></polygon>
  <polygon fill="#4C5671" points="18.113 26.745 18.148 27.36 17.686 27.279 17.519 27.701 18.024 27.692 17.521 28.27 17.69 28.504 18.154 27.876 18.118 28.538 18.449 28.347 18.409 27.724 18.876 27.813 19.038 27.393 18.538 27.395 19.037 26.825 18.872 26.588 18.412 27.208 18.444 26.554"></polygon>
  <g>
    <path fill="#4C5671" d="M28.95323,26.3117c-1.0369,0.59865-1.87409,2.04881-1.8707,3.24457
					c0.00246,0.86676,0.45428,1.35873,1.09819,1.32486l0.00839,2.95962l1.56464-0.90335l-0.00839-2.95962
					c0.64943-0.71284,1.09328-1.72193,1.09082-2.58869C30.83279,26.19333,29.99013,25.71304,28.95323,26.3117z"></path>
    <g>
      <path fill="#FFDD94" d="M38.1204,35.53052c-0.49466-0.28531-0.89397-1.33349-0.89113-2.33005
							c0.00189-0.67075,0.18566-1.15501,0.4565-1.31213l-0.64244,0.37343c-0.27089,0.15712-0.45461,0.64138-0.45655,1.31213
							c-0.00278,0.99656,0.39647,2.04475,0.89119,2.33006c0.16157,0.09347,0.31345,0.09391,0.44481,0.01736l0.64249-0.37299
							C38.43385,35.62443,38.28196,35.62399,38.1204,35.53052z"></path>
      <path fill="#FFDD94" d="M37.25347,28.77359c-0.55631-0.32136-1.07395-0.32937-1.50168-0.08101l-0.64243,0.37343
							c0.42773-0.24881,0.94532-0.24035,1.50168,0.08101c1.46079,0.84345,2.63661,3.51133,2.62965,5.95888
							c-0.00428,1.51331-0.45939,2.5891-1.15128,2.99102l0.64243-0.37299c0.69195-0.40236,1.147-1.47815,1.15134-2.99102
							C39.89008,32.28491,38.71426,29.61703,37.25347,28.77359z"></path>
    </g>
    <path fill="#FFDD94" d="M34.12185,30.62259l-6.07518-3.50744c-0.13589,0.1661-0.26295,0.34103-0.37518,0.5281l6.32764,3.65312
					C34.02721,31.05578,34.06881,30.83118,34.12185,30.62259z"></path>
    <path fill="#FEBB61" d="M36.61578,29.1481c-1.14146-0.65558-2.11338-0.01159-2.49766,1.46897
					c-0.04518,0.21466-0.09036,0.44091-0.1243,0.6782l-6.3175-3.65036c-0.24867,0.39566-0.41822,0.83603-0.51989,1.2659
					l6.83739,3.95552c0.21473,2.20346,1.2997,4.39589,2.58802,5.153c1.46925,0.83657,2.6559-0.46299,2.6559-2.91533
					C39.24905,32.66271,38.07365,29.99571,36.61578,29.1481z M37.47471,35.90637c-0.48596-0.28254-0.89286-1.33378-0.89286-2.32817
					c0.01131-1.00599,0.40691-1.5821,0.90417-1.29956c0.49727,0.28254,0.8928,1.33323,0.8928,2.32817
					C38.37881,35.60121,37.97198,36.18891,37.47471,35.90637z"></path>
  </g>
  <path fill="#373F51" d="M43.01932,2.65074c-0.00201-0.71191-0.51166-1.00244-1.05257-0.79818L9.55806,20.56399
		c-0.69859,0.51107-1.20494,1.38802-1.20292,2.09994l0.01013,2.94737L43.02939,5.59762L43.01932,2.65074z"></path>
  <g>
    <path fill="#F9D5B4" d="M38.38949,5.30992c0.38208-0.22059,0.69617-0.04771,0.69743,0.39757
					c0.00124,0.43899-0.31084,0.97339-0.69292,1.19398s-0.69086,0.04465-0.6921-0.39435
					C37.70064,6.06185,38.00742,5.53051,38.38949,5.30992z"></path>
    <path fill="#7BB1FF" d="M36.23505,6.55378c0.38207-0.22059,0.69616-0.04771,0.69742,0.39757
					c0.00125,0.43899-0.31084,0.97339-0.69291,1.19398c-0.38207,0.22059-0.69616,0.0477-0.6974-0.39129
					C35.5409,7.30877,35.85298,6.77437,36.23505,6.55378z"></path>
    <path fill="#FE91AB" d="M40.54393,4.06605c0.38208-0.22059,0.69617-0.04771,0.69743,0.39757
					c0.00125,0.43899-0.31084,0.97339-0.69291,1.19398c-0.38206,0.22058-0.69084,0.04464-0.69209-0.39436
					C39.8551,4.81797,40.16187,4.28663,40.54393,4.06605z"></path>
  </g>
</svg>
